<?xml version="1.0" standalone="no"?>
<!DOCTYPE svg PUBLIC "-//W3C//DTD SVG 1.1//EN" "http://www.w3.org/Graphics/SVG/1.1/DTD/svg11.dtd" >
<svg xmlns="http://www.w3.org/2000/svg">
<metadata>Generated by IcoMoon</metadata>
<defs>
<font id="icomoon" horiz-adv-x="1024">
<font-face units-per-em="1024" ascent="960" descent="-64" />
<missing-glyph horiz-adv-x="1024" />
<glyph unicode="&#x20;" d="" horiz-adv-x="512" />
<glyph unicode="&#xe600;" d="M946.483 781.373c-151.593 33.3-241.152 80.384-306.504 114.749-50.749 26.685-87.409 45.957-127.98 45.957s-77.23-19.272-127.98-45.957c-65.372-34.365-154.89-81.449-306.483-114.749l-16.097-3.523v-16.466c0-623.903 437.555-833.106 441.979-835.133l9.011-4.157 8.847 4.506c4.424 2.232 441.283 231.67 441.283 834.785v16.466l-16.077 3.523zM511.59-31.928c-60.334 32.727-402.227 241.848-409.088 776.95 147.21 34.181 235.5 80.609 300.585 114.831 45.548 23.962 78.438 41.267 108.913 41.267 30.454 0 63.386-17.306 108.913-41.247 65.085-34.222 153.375-80.65 300.564-114.831-7.107-518.042-349.839-741.765-409.887-776.97zM367.186 479.498l-27.484-30.392 160.399-145.080 204.042 316.498-34.427 22.18-177.91-275.968z" />
<glyph unicode="&#xe601;" d="M512 942.080c-282.317 0-512-229.683-512-512s229.683-512 512-512 512 229.683 512 512-229.683 512-512 512zM512-40.96c-259.727 0-471.040 211.272-471.040 471.040 0 259.727 211.313 471.040 471.040 471.040 259.768 0 471.040-211.313 471.040-471.040 0-259.768-211.272-471.040-471.040-471.040zM481.587 321.925l-124.641 112.763-27.484-30.372 160.399-145.121 204.042 316.518-34.427 22.18z" />
<glyph unicode="&#xe602;" d="M512 942.080c-282.767 0-512-229.192-512-512 0-282.767 229.233-512 512-512s512 229.233 512 512c0 282.808-229.233 512-512 512zM769.085 541.409c0.246-5.632 0.369-11.387 0.369-17.162 0-175.206-133.407-377.283-377.324-377.283-74.916 0-144.65 21.914-203.325 59.556 10.363-1.249 20.89-1.843 31.642-1.843 62.116 0 119.316 21.156 164.68 56.73-57.999 1.085-107.008 39.526-123.924 92.119 8.131-1.516 16.466-2.396 25.006-2.396 12.124 0 23.798 1.638 34.918 4.69-60.641 12.247-106.312 65.782-106.312 130.089 0 0.553 0 1.106 0 1.679 17.838-9.953 38.277-15.933 60.047-16.65-35.594 23.818-59.003 64.41-59.003 110.408 0 24.33 6.513 47.084 17.94 66.724 65.434-80.241 163.164-133.038 273.388-138.588-2.273 9.708-3.441 19.825-3.441 30.228 0 73.236 59.351 132.608 132.608 132.608 38.113 0 72.643-16.077 96.809-41.882 30.208 5.939 58.593 16.978 84.193 32.154-9.871-30.966-30.925-56.914-58.327-73.38 26.849 3.236 52.408 10.342 76.206 20.91-17.797-26.644-40.284-49.992-66.15-68.71z" />
<glyph unicode="&#xe603;" d="M512 942.080c-282.788 0-512-229.233-512-512 0-247.685 175.903-454.287 409.6-501.74v399.34h-61.44v122.88h61.44v61.44c0 95.785 32.379 163.84 143.36 163.84 59.433 0 122.88-20.48 122.88-20.48v-102.4h-61.44c-43.93 0-61.44-10.322-61.44-40.96v-61.44h122.88l-20.48-122.88h-102.4v-407.818c263.578 20.869 471.040 241.254 471.040 510.218 0 282.767-229.233 512-512 512z" />
<glyph unicode="&#xe604;" d="M764.846 192.553c3.994-3.994 9.236-6.001 14.479-6.001s10.486 2.007 14.479 6.001l237.507 237.527-237.466 237.507c-8.008 8.008-20.951 8.008-28.959 0-8.008-7.987-8.008-20.951 0-28.959l188.027-188.068h-604.754c-11.305 0-20.48-9.175-20.48-20.48 0-11.325 9.175-20.48 20.48-20.48h604.754l-188.088-188.088c-7.987-7.987-7.987-20.951 0.020-28.959zM778.24-20.48c0-11.305-9.175-20.48-20.48-20.48h-696.32c-11.284 0-20.48 9.175-20.48 20.48v901.12c0 11.284 9.196 20.48 20.48 20.48h696.32c11.305 0 20.48-9.196 20.48-20.48v-122.88l40.96-40.96v163.84c0 33.874-27.566 61.44-61.44 61.44h-696.32c-33.874 0-61.44-27.566-61.44-61.44v-901.12c0-33.874 27.566-61.44 61.44-61.44h696.32c33.874 0 61.44 27.566 61.44 61.44v163.84l-40.96-40.96v-122.88z" />
<glyph unicode="&#xe605;" d="M512 614.4c-101.622 0-184.32-82.698-184.32-184.32 0-101.642 82.698-184.32 184.32-184.32 101.642 0 184.32 82.678 184.32 184.32 0 101.622-82.678 184.32-184.32 184.32zM512 286.72c-79.053 0-143.36 64.328-143.36 143.36 0 79.053 64.307 143.36 143.36 143.36 79.032 0 143.36-64.307 143.36-143.36 0-79.032-64.328-143.36-143.36-143.36zM1024 352.379v157.471l-150.385 24.576c-7.864 27.156-18.657 53.248-32.276 77.865l87.613 124.887-111.35 111.329-123.31-88.637c-24.863 13.844-51.159 24.76-78.438 32.625l-26.214 149.606h-157.491l-24.33-149.135c-27.464-7.782-53.801-18.616-78.561-32.276l-122.982 87.88-111.309-111.288 86.467-123.658c-13.906-24.986-24.924-51.507-32.87-79.073l-148.562-24.74v-157.389l148.337-26.296c7.905-27.546 18.903-54.047 32.85-79.053l-87.654-122.614 111.268-111.37 123.843 86.733c24.945-13.824 51.323-24.719 78.746-32.543l24.842-149.238h157.389l26.563 149.647c27.423 7.987 53.678 18.985 78.377 32.809l124.641-87.45 111.35 111.432-89.047 123.597c13.619 24.637 24.392 50.77 32.174 77.906l150.323 26.399zM876.933 128.799l-62.382-62.464-118.19 82.903-11.448-6.963c-28.324-17.224-59.167-30.147-91.709-38.38l-12.82-3.256-25.129-141.64h-88.371l-23.532 141.312-13.087 3.215c-32.481 8.028-63.508 20.849-92.18 38.093l-11.407 6.84-117.268-82.125-62.423 62.484 83.026 116.122-6.984 11.53c-17.408 28.754-30.351 59.863-38.441 92.447l-3.215 12.902-140.411 24.924v88.371l140.554 23.388 3.256 13.025c8.172 32.686 21.115 63.836 38.461 92.529l6.881 11.407-81.9 117.125 62.484 62.444 116.408-83.169 11.53 6.922c28.467 17.101 59.453 29.839 92.16 37.868l13.148 3.236 23.060 141.23h88.269l24.822-141.701 12.943-3.215c32.358-8.069 63.263-20.91 91.873-38.236l11.551-7.004 116.797 83.968 62.423-62.382-83.026-118.292 6.861-11.407c17.039-28.344 29.798-59.126 37.908-91.443l3.256-13.066 142.356-23.286v-88.289l-142.418-25.027-3.215-12.923c-8.028-32.297-20.746-63.058-37.806-91.464l-6.943-11.551 84.275-117.002z" />
<glyph unicode="&#xe606;" d="M1001.288 163.779c-16.118 11.284-188.928 126.157-209.449 138.711-19.538 11.94-49.275 9.748-77.885-5.366-17.265-9.052-71.045-39.69-94.392-53.023-20.275 14.029-72.499 53.228-156.488 137.175-83.497 83.476-122.982 136.11-137.093 156.508 13.332 23.368 43.93 77.107 52.941 94.31 15.606 29.553 17.551 58.819 5.202 78.254-12.493 19.702-126.73 192.922-138.67 209.449-18.227 25.211-63.017 29.614-96.358 6.39-1.475-1.044-150.938-110.346-149.074-169.247 5.53-174.182 175.616-379.679 317.317-521.4 141.681-141.722 347.136-311.849 522.015-317.44h1.29c58.286 0 166.216 147.681 167.26 149.135 11.817 16.876 17.449 36.229 15.811 54.456-1.577 17.879-9.748 33.198-22.426 42.086zM974.336 90.747c-34.632-49.541-112.23-131.686-133.693-131.686v-20.48l-0.635 20.5c-160.829 5.14-357.233 168.919-493.691 305.418-136.479 136.479-300.237 332.943-305.357 494.367-0.225 21.361 81.961 99.041 131.625 133.755 10.076 7.025 18.842 8.499 24.412 8.499 8.356 0 13.804-3.256 15.278-5.284 11.182-15.462 125.42-188.682 137.277-207.401 2.703-4.26 3.236-18.104-6.861-37.233-11.080-21.135-58.020-103.137-58.491-103.956l-5.898-10.301 6.001-10.24c1.413-2.417 36.106-60.641 149.811-174.346 113.746-113.725 171.93-148.46 174.346-149.873l10.24-6.021 10.322 5.898c0.819 0.471 82.842 47.411 104.038 58.552 10.117 5.325 20.623 8.397 28.795 8.397 4.977 0 7.537-1.126 8.622-1.782 20.132-12.329 193.843-127.898 207.319-137.318 1.495-1.044 4.485-4.915 5.12-12.124 0.758-8.643-2.273-18.371-8.581-27.341z" />
<glyph unicode="&#xe607;" d="M942.080 204.8c0 24.433-19.395 38.523-39.916 53.412-46.346 33.649-123.924 89.948-123.924 315.228 0 128.86-73.769 226.98-190.157 256.84 3.666 9.277 5.837 19.313 5.837 29.88 0 45.179-36.741 81.92-81.92 81.92-45.179 0-81.92-36.741-81.92-81.92 0-10.547 2.171-20.562 5.816-29.839-116.306-29.901-190.136-128.348-190.136-256.881 0-225.28-77.578-281.58-123.924-315.228-20.521-14.889-39.916-28.979-39.916-53.412 0-74.24 95.887-111.718 315.31-120.689-5.161-13.722-8.11-28.242-8.11-43.151 0-67.768 55.112-122.88 122.88-122.88s122.88 55.112 122.88 122.88c0 14.93-2.99 29.45-8.131 43.151 219.443 8.97 315.331 46.428 315.331 120.689zM512 901.12c22.589 0 40.96-18.371 40.96-40.96s-18.371-40.96-40.96-40.96c-22.589 0-40.96 18.371-40.96 40.96s18.371 40.96 40.96 40.96zM593.92 40.96c0-45.179-36.741-81.92-81.92-81.92s-81.92 36.741-81.92 81.92c0 14.807 4.055 29.204 11.571 41.8 22.446-0.492 45.609-0.84 70.349-0.84 24.699 0 47.841 0.348 70.246 0.84 7.516-12.636 11.674-26.911 11.674-41.8zM512 122.88c-321.618 0-389.12 44.544-389.12 81.92 0 3.564 13.844 13.619 23.020 20.255 49.213 35.738 140.82 102.216 140.82 348.385 0 115.057 69.386 201.482 176.906 220.959 13.599-10.035 30.228-16.159 48.374-16.159 18.125 0 34.734 6.103 48.312 16.118 107.622-19.517 176.968-105.615 176.968-220.918 0-246.17 91.607-312.648 140.82-348.385 9.155-6.636 23.020-16.691 23.020-20.255 0-37.376-67.502-81.92-389.12-81.92z" />
<glyph unicode="&#xe608;" d="M860.16 757.76h-696.32c-76.124 0-122.88-71.578-122.88-122.88v-417.464c0-63.406 51.61-115.016 115.016-115.016h712.049c63.406 0 115.016 51.61 115.016 115.016v420.618c0 62.648-58.552 119.726-122.88 119.726zM163.84 716.8h696.32c41.349 0 81.92-39.014 81.92-78.766v-23.634h-860.16v20.48c0 27.791 28.918 81.92 81.92 81.92zM868.024 143.36h-712.049c-40.837 0-74.056 33.219-74.056 74.056v294.584h860.16v-294.584c0-40.837-33.219-74.056-74.056-74.056z" />
<glyph unicode="&#xe609;" d="M880.148 232.202c-8.008 8.008-20.951 8.008-28.959 0s-8.008-20.951 0-28.959l94.392-94.392-867.185 0.020 94.413 94.351c8.008 8.008 8.008 20.951 0 28.959-3.994 3.994-9.236 6.001-14.479 6.001s-10.486-2.007-14.479-6.001l-143.852-143.77 143.852-143.852c8.008-8.008 20.951-8.008 28.959 0s8.008 20.951 0 28.959l-94.392 94.392 867.205-0.041-94.413-94.351c-8.008-8.008-8.008-20.951 0-28.959 3.994-3.994 9.236-6.001 14.479-6.001s10.486 2.007 14.479 6.001l143.831 143.77-143.852 143.872zM403.415 353.28c18.698 0 36.925 1.925 54.62 5.386 17.818-3.441 35.922-5.386 53.944-5.386 18.698 0 36.925 1.925 54.62 5.407 17.818-3.461 35.922-5.407 53.944-5.407 156.672 0 284.16 127.468 284.16 284.16s-127.468 284.16-284.14 284.16c-18.022 0-36.127-1.946-53.944-5.386-17.695 3.461-35.942 5.386-54.62 5.386-18.022 0-36.147-1.946-53.944-5.386-17.715 3.461-35.942 5.386-54.641 5.386-156.692 0-284.16-127.468-284.16-284.16s127.468-284.16 284.16-284.16zM863.764 637.44c0-118.804-85.709-217.825-198.472-238.899 78.602 50.606 130.888 138.67 130.888 238.899s-52.306 188.293-130.908 238.899c112.783-21.074 198.492-120.095 198.492-238.899zM755.2 637.44c0-118.804-85.709-217.825-198.492-238.899 78.602 50.606 130.888 138.67 130.888 238.899s-52.285 188.293-130.888 238.899c112.783-21.074 198.492-120.095 198.492-238.899zM403.415 880.64c134.103 0 243.2-109.097 243.2-243.2s-109.097-243.2-243.2-243.2-243.2 109.097-243.2 243.2 109.097 243.2 243.2 243.2zM378.45 565.924c0-6.226-1.167-10.916-3.4-14.029-2.294-3.092-5.591-5.366-9.871-6.779-3.318-0.963-3.133-1.905-11.981-2.806-8.786-0.86-15.237-1.475-19.436-1.72v-22.569h140.206v22.548c-4.035 0.082-3.052 0.799-11.264 2.089-8.192 1.249-14.090 2.621-17.695 4.116-4.014 1.823-7.107 4.628-9.236 8.438-2.13 3.809-3.236 8.131-3.236 12.984v124.58c0 9.585 0.225 20.357 0.655 32.481 0.43 12.042 0.86 22.569 1.229 31.58h-24.33c-5.14-6.41-13.578-12.349-25.477-17.879-11.837-5.55-25.272-8.356-40.223-8.356h-11.489v-17.469h45.568v-147.21z" />
<glyph unicode="&#xe60a;" d="M0.389 962.56v-648.315h1024.901v648.315h-1024.901zM984.33 355.205h-942.981v566.395h942.981v-566.395zM431.002 527.258h36.762v219.791h-29.839c-4.198-13.332-11.919-25.006-23.163-35-11.264-10.015-21.688-16.794-31.273-20.378v-38.093c18.227 6.861 34.079 17.49 47.514 31.805v-158.126zM578.212 523.51c18.555 0 33.034 7.475 43.459 22.385 12.513 18.125 18.821 47.882 18.821 89.293 0 41.513-6.246 71.229-18.719 89.149-10.465 15.114-25.006 22.692-43.561 22.692-18.596 0-33.055-7.455-43.459-22.405-12.575-18.125-18.842-47.78-18.842-89.006 0-42.004 5.693-71.188 17.142-87.552 11.448-16.343 26.481-24.556 45.158-24.556zM558.162 690.012c1.946 8.356 4.649 14.172 8.11 17.388 3.502 3.236 7.475 4.854 11.94 4.854 4.444 0 8.397-1.618 11.837-4.854 3.441-3.215 6.287-9.646 8.54-19.251 2.294-9.605 3.441-27.238 3.441-52.92 0-25.682-1.29-43.909-3.83-54.641-1.925-8.356-4.628-14.172-8.11-17.388-3.482-3.256-7.434-4.874-11.878-4.874-4.465 0-8.417 1.597-11.858 4.792-3.461 3.174-6.328 9.564-8.581 19.169-2.232 9.626-3.379 27.259-3.379 52.941 0 25.682 1.249 43.93 3.768 54.784zM512 411.197c125.276 0 227.205 101.929 227.205 227.205s-101.929 227.205-227.205 227.205-227.205-101.929-227.205-227.205 101.929-227.205 227.205-227.205zM512 824.648c102.707 0 186.245-83.558 186.245-186.245s-83.538-186.245-186.245-186.245c-102.687 0-186.245 83.558-186.245 186.245s83.558 186.245 186.245 186.245zM983.142-40.96h-942.326v90.87h-40.96v-131.83h1024.246v131.83h-40.96zM388.813 57.201l118.641 118.641 118.62-118.641c8.008-8.008 20.951-8.008 28.959 0s8.008 20.951 0 28.959l-147.599 147.599-147.599-147.599c-8.008-8.008-8.008-20.951 0-28.959 3.994-3.994 9.236-6.001 14.479-6.001s10.506 2.007 14.5 6.001z" />
<glyph unicode="&#xe60b;" d="M0.389 962.56v-648.315h1024.901v648.315h-1024.901zM984.33 355.205h-942.981v566.395h942.981v-566.395zM431.002 527.258h36.762v219.791h-29.839c-4.198-13.332-11.919-25.006-23.163-35-11.264-10.015-21.688-16.794-31.273-20.378v-38.093c18.227 6.861 34.079 17.49 47.514 31.805v-158.126zM578.212 523.51c18.555 0 33.034 7.475 43.459 22.385 12.513 18.125 18.821 47.882 18.821 89.293 0 41.513-6.246 71.229-18.719 89.149-10.465 15.114-25.006 22.692-43.561 22.692-18.596 0-33.055-7.455-43.459-22.405-12.575-18.125-18.842-47.78-18.842-89.006 0-42.004 5.693-71.188 17.142-87.552 11.448-16.343 26.481-24.556 45.158-24.556zM558.162 690.012c1.946 8.356 4.649 14.172 8.11 17.388 3.502 3.236 7.475 4.854 11.94 4.854 4.444 0 8.397-1.618 11.837-4.854 3.441-3.215 6.287-9.646 8.54-19.251 2.294-9.605 3.441-27.238 3.441-52.92 0-25.682-1.29-43.909-3.83-54.641-1.925-8.356-4.628-14.172-8.11-17.388-3.482-3.256-7.434-4.874-11.878-4.874-4.465 0-8.417 1.597-11.858 4.792-3.461 3.174-6.328 9.564-8.581 19.169-2.232 9.626-3.379 27.259-3.379 52.941 0 25.682 1.249 43.93 3.768 54.784zM512 411.197c125.276 0 227.205 101.929 227.205 227.205s-101.929 227.205-227.205 227.205-227.205-101.929-227.205-227.205 101.929-227.205 227.205-227.205zM512 824.648c102.707 0 186.245-83.558 186.245-186.245s-83.538-186.245-186.245-186.245c-102.687 0-186.245 83.558-186.245 186.245s83.558 186.245 186.245 186.245zM983.142-40.96h-942.326v90.87h-40.96v-131.83h1024.246v131.83h-40.96zM626.074 227.758l-118.641-118.641-118.62 118.641c-8.008 8.008-20.951 8.008-28.959 0s-8.008-20.951 0-28.959l147.599-147.599 147.599 147.599c8.008 8.008 8.008 20.951 0 28.959-3.994 3.994-9.236 6.001-14.479 6.001s-10.486-2.007-14.5-6.001z" />
<glyph unicode="&#xe60c;" d="M0 798.72v-737.28h1024v737.28h-1024zM983.040 757.76v-51.343l-402.719-350.966c-28.836-25.129-57.385-27.812-68.321-27.812-10.936 0-39.444 2.724-68.321 27.853-28.672 24.965-359.24 313.078-402.719 350.986v51.282h942.080zM983.040 652.206v-446.689l-268.739 212.48 268.739 234.209zM309.678 418.038l-268.718-212.48v446.689c56.771-49.5 178.606-155.668 268.718-234.209zM40.96 102.4v50.954l300.114 237.302c39.199-34.14 68.137-59.372 75.756-66.007 39.281-34.202 79.626-37.908 95.15-37.908 15.544 0 55.89 3.707 95.15 37.868l75.735 66.007 300.175-237.302v-50.913h-942.080z" />
<glyph unicode="&#xe60d;" d="M110.92 437.76h802.161v-40.96h-802.161v40.96zM110.92 678.4h802.161v-40.96h-802.161v40.96zM110.92 197.12h802.161v-40.96h-802.161v40.96z" />
<glyph unicode="&#xe60e;" d="M982.323 48.599c-24.044 19.128-56.115 44.646-69.919 80.077 69.796 64.287 109.568 151.736 109.568 241.992 0 147.681-107.766 281.006-263.148 327.905-49.009 140.902-196.198 243.507-369.705 243.507-214.569 0-389.12-155.259-389.12-346.112 0-90.419 39.875-178.012 109.875-242.319-13.005-36.721-45.937-62.075-70.574-81.060-22.835-17.572-42.537-32.788-36.536-54.764l2.253-8.212 7.414-4.198c14.787-8.376 33.526-12.431 57.283-12.431 47.882 0 117.801 17.715 203.53 51.323 57.283-132.178 199.7-219.73 361.636-219.73 27.525 0 55.009 3.584 81.019 7.496 31.089-13.947 149.627-64.43 234.783-64.43 22.753 0 43.151 3.625 58.839 12.493l7.414 4.198 2.232 8.233c6.001 21.955-12.902 36.987-36.844 56.033zM57.037 234.496c2.499 1.966 4.997 3.871 7.27 5.632 30.228 23.286 75.899 58.45 88.801 115.794l2.703 12.063-9.4 8.028c-67.011 57.18-105.452 137.339-105.452 219.955 0 168.264 156.18 305.152 348.16 305.152 190.853 0 346.112-136.888 346.112-305.152s-156.18-305.152-348.16-305.152c-31.068 0-57.016 2.499-79.36 7.66l-6.472 1.475-6.103-2.58c-123.965-52.449-190.996-63.447-225.403-63.447-4.506 0.020-8.745 0.205-12.698 0.573zM715.735 73.482c-27.32-4.178-54.047-7.946-80.855-7.946-2.826 0-5.571 0.246-8.376 0.307 4.956 3.707 8.376 9.38 8.376 16.077 0 11.325-9.155 20.48-20.48 20.48s-20.48-9.155-20.48-20.48c0-5.816 2.478-10.998 6.369-14.746-30.945 2.662-60.764 8.888-88.986 18.186-1.7 9.626-9.687 17.039-19.784 17.039-4.854 0-9.134-1.946-12.657-4.751-16.814 7.332-32.891 15.79-48.046 25.375 10.936 0.41 19.743 9.277 19.743 20.337 0 11.325-9.175 20.48-20.48 20.48s-20.48-9.155-20.48-20.48c0-2.376 0.614-4.588 1.352-6.697-40.346 29.696-72.888 67.625-94.474 111.575 2.683 1.393 4.895 3.359 6.717 5.755 19.169-2.785 40.284-4.137 63.877-4.137 9.912 0 19.64 0.676 29.389 1.311 3.625-3.277 8.335-5.407 13.619-5.407 6.758 0 12.472 3.482 16.2 8.54 31.007 4.239 60.928 11.448 89.088 21.811-1.659-2.97-2.888-6.205-2.888-9.871 0-11.325 9.155-20.48 20.48-20.48s20.48 9.155 20.48 20.48c0 9.421-6.472 17.019-15.135 19.395 16.261 7.148 32.072 14.93 46.981 23.941 2.765-1.393 5.796-2.376 9.114-2.376 11.325 0 20.48 9.155 20.48 20.48 0 0.492-0.266 0.922-0.287 1.413 16.691 12.288 32.010 25.989 46.203 40.53 7.823 2.007 13.599 8.253 14.889 16.364 12.452 14.438 23.962 29.553 33.772 45.65 2.396-0.983 5.038-1.556 7.823-1.556 11.325 0 20.48 9.175 20.48 20.48 0 7.25-3.973 13.312-9.667 16.957 17.961 39.772 28.099 83.046 28.099 128.451 0 18.903-2.15 37.315-5.448 55.398 3.932-1.495 7.844-3.052 11.674-4.669-2.437-3.359-4.178-7.311-4.178-11.817 0-11.305 9.155-20.48 20.48-20.48 9.4 0 16.957 6.431 19.374 15.053 44.995-25.047 82.862-58.88 110.633-98.406-2.232 0.84-4.588 1.434-7.127 1.434-11.325 0-20.48-9.175-20.48-20.48s9.155-20.48 20.48-20.48c10.895 0 19.579 8.561 20.234 19.272 9.523-16.138 17.265-33.116 23.45-50.627-1.577-2.888-2.724-6.062-2.724-9.605 0-7.721 4.444-14.193 10.752-17.695 4.854-20.255 7.68-41.021 7.68-62.198 0-7.782-0.676-15.483-1.331-23.204-9.646-1.638-17.101-9.667-17.101-19.784 0-8.008 4.69-14.766 11.407-18.125-13.967-60.109-48.148-115.917-98.427-158.822l-9.728-8.294 3.174-12.37c10.117-39.444 35.881-68.669 60.477-90.706-2.396 1.024-5.059 1.597-7.864 1.597-11.325 0-20.48-9.155-20.48-20.48 0-2.437 0.594-4.69 1.372-6.861-50.77 9.544-110.715 30.372-156.447 49.971 6.902 3.318 11.715 10.199 11.715 18.33 0 11.325-9.155 20.48-20.48 20.48s-20.48-9.155-20.48-20.48c0-2.867 0.594-5.55 1.638-8.028l-2.703-0.41zM938.004 8.847c2.376 3.338 4.076 7.209 4.076 11.633 0 4.239-1.577 7.946-3.789 11.203 6.472-5.489 12.82-10.609 18.514-15.135 2.929-2.314 6.185-4.915 9.339-7.516-8.335-0.963-17.879-0.922-28.14-0.184zM819.2 266.24c0-11.311-9.169-20.48-20.48-20.48s-20.48 9.169-20.48 20.48c0 11.311 9.169 20.48 20.48 20.48 11.311 0 20.48-9.169 20.48-20.48zM757.76 204.8c0-11.311-9.169-20.48-20.48-20.48s-20.48 9.169-20.48 20.48c0 11.311 9.169 20.48 20.48 20.48 11.311 0 20.48-9.169 20.48-20.48zM819.2 143.36c0-11.311-9.169-20.48-20.48-20.48s-20.48 9.169-20.48 20.48c0 11.311 9.169 20.48 20.48 20.48 11.311 0 20.48-9.169 20.48-20.48zM573.44 143.36c0-11.311-9.169-20.48-20.48-20.48s-20.48 9.169-20.48 20.48c0 11.311 9.169 20.48 20.48 20.48 11.311 0 20.48-9.169 20.48-20.48zM880.64 204.8c0-11.311-9.169-20.48-20.48-20.48s-20.48 9.169-20.48 20.48c0 11.311 9.169 20.48 20.48 20.48 11.311 0 20.48-9.169 20.48-20.48zM880.64 81.92c0-11.311-9.169-20.48-20.48-20.48s-20.48 9.169-20.48 20.48c0 11.311 9.169 20.48 20.48 20.48 11.311 0 20.48-9.169 20.48-20.48zM696.32 266.24c0-11.311-9.169-20.48-20.48-20.48s-20.48 9.169-20.48 20.48c0 11.311 9.169 20.48 20.48 20.48 11.311 0 20.48-9.169 20.48-20.48zM512 204.8c0-11.311-9.169-20.48-20.48-20.48-11.311 0-20.48 9.169-20.48 20.48 0 11.311 9.169 20.48 20.48 20.48 11.311 0 20.48-9.169 20.48-20.48zM634.88 204.8c0-11.311-9.169-20.48-20.48-20.48s-20.48 9.169-20.48 20.48c0 11.311 9.169 20.48 20.48 20.48 11.311 0 20.48-9.169 20.48-20.48zM696.32 143.36c0-11.311-9.169-20.48-20.48-20.48s-20.48 9.169-20.48 20.48c0 11.311 9.169 20.48 20.48 20.48 11.311 0 20.48-9.169 20.48-20.48zM819.2 512c0-11.311-9.169-20.48-20.48-20.48s-20.48 9.169-20.48 20.48c0 11.311 9.169 20.48 20.48 20.48 11.311 0 20.48-9.169 20.48-20.48zM819.2 389.12c0-11.311-9.169-20.48-20.48-20.48s-20.48 9.169-20.48 20.48c0 11.311 9.169 20.48 20.48 20.48 11.311 0 20.48-9.169 20.48-20.48zM880.64 450.56c0-11.311-9.169-20.48-20.48-20.48s-20.48 9.169-20.48 20.48c0 11.311 9.169 20.48 20.48 20.48 11.311 0 20.48-9.169 20.48-20.48zM757.76 327.68c0-11.311-9.169-20.48-20.48-20.48s-20.48 9.169-20.48 20.48c0 11.311 9.169 20.48 20.48 20.48 11.311 0 20.48-9.169 20.48-20.48zM880.64 327.68c0-11.311-9.169-20.48-20.48-20.48s-20.48 9.169-20.48 20.48c0 11.311 9.169 20.48 20.48 20.48 11.311 0 20.48-9.169 20.48-20.48zM942.080 266.24c0-11.311-9.169-20.48-20.48-20.48s-20.48 9.169-20.48 20.48c0 11.311 9.169 20.48 20.48 20.48 11.311 0 20.48-9.169 20.48-20.48zM942.080 389.12c0-11.311-9.169-20.48-20.48-20.48s-20.48 9.169-20.48 20.48c0 11.311 9.169 20.48 20.48 20.48 11.311 0 20.48-9.169 20.48-20.48zM389.12 204.8c0-11.311-9.169-20.48-20.48-20.48-11.311 0-20.48 9.169-20.48 20.48 0 11.311 9.169 20.48 20.48 20.48 11.311 0 20.48-9.169 20.48-20.48zM880.64 573.44c0-11.311-9.169-20.48-20.48-20.48s-20.48 9.169-20.48 20.48c0 11.311 9.169 20.48 20.48 20.48 11.311 0 20.48-9.169 20.48-20.48z" />
<glyph unicode="&#xe60f;" d="M512 921.6c-271.012 0-491.52-220.508-491.52-491.52s220.508-491.52 491.52-491.52 491.52 220.508 491.52 491.52-220.508 491.52-491.52 491.52zM913.347 225.71h-167.752c13.046 56.136 20.828 118.149 22.159 183.89h194.294c-2.97-65.966-20.255-128.225-48.701-183.89zM61.952 409.6h194.294c1.331-65.741 9.114-127.734 22.18-183.89h-167.772c-28.447 55.665-45.732 117.924-48.701 183.89zM110.653 634.45h167.772c-13.046-56.156-20.828-118.149-22.18-183.89h-194.294c2.97 65.966 20.255 128.225 48.701 183.89zM532.48 676.27v202.179c65.29-13.64 123.105-91.525 158.392-202.179h-158.392zM702.73 634.45c14.008-55.951 22.589-118.313 24.064-183.89h-194.314v183.89h170.25zM491.52 878.449v-202.179h-158.392c35.287 110.653 93.102 188.559 158.392 202.179zM491.52 634.45v-183.89h-194.294c1.475 65.556 10.056 127.939 24.064 183.89h170.23zM297.226 409.6h194.294v-183.89h-170.25c-14.008 55.972-22.569 118.333-24.044 183.89zM491.52 183.89v-202.179c-65.29 13.64-123.105 91.546-158.392 202.179h158.392zM532.48-18.309v202.179h158.392c-35.287-110.633-93.102-188.539-158.392-202.179zM532.48 225.71v183.89h194.294c-1.475-65.556-10.056-127.918-24.064-183.89h-170.23zM767.734 450.56c-1.331 65.741-9.114 127.734-22.159 183.89h167.752c28.467-55.665 45.732-117.924 48.701-183.89h-194.294zM889.057 676.27h-154.501c-23.47 79.319-58.040 144.241-100.045 187.29 105.718-29.901 195.707-97.464 254.546-187.29zM389.489 863.58c-42.004-43.049-76.595-107.971-100.045-187.29h-154.501c58.839 89.805 148.828 157.368 254.546 187.29zM134.943 183.89h154.501c23.47-79.319 58.040-144.241 100.045-187.31-105.718 29.921-195.707 97.485-254.546 187.31zM634.511-3.4c42.004 43.049 76.575 107.95 100.045 187.29h154.501c-58.839-89.825-148.828-157.368-254.546-187.29z" />
<glyph unicode="&#xe610;" d="M512 942.080h-20.48v-204.8c0-11.305 9.175-20.48 20.48-20.48 11.325 0 20.48 9.175 20.48 20.48v163.41c250.266-10.772 450.56-217.743 450.56-470.61 0-259.748-211.292-471.040-471.040-471.040-259.727 0-471.040 211.292-471.040 471.040 0 125.747 48.947 243.999 137.81 332.964 7.987 8.008 7.987 20.972-0.020 28.959-7.987 7.987-20.972 7.987-28.959-0.020-96.584-96.707-149.791-225.239-149.791-361.902 0-282.317 229.683-512 512-512s512 229.683 512 512-229.683 512-512 512zM555.438 386.621c24.003 23.982 24.003 62.894 0 86.897s-300.216 213.34-300.216 213.34 189.338-276.234 213.34-300.237 62.894-23.982 86.876 0z" />
<glyph unicode="&#xe611;" d="M1019.453 13.353l-489.718 848.22c-7.311 12.677-28.16 12.677-35.471 0l-491.52-851.333c-3.645-6.349-3.645-14.131 0-20.48 3.666-6.349 10.424-10.24 17.736-10.24h983.040c0.123 0 0.287 0 0.41 0 11.325 0 20.48 9.155 20.48 20.48 0 5.1-1.864 9.769-4.956 13.353zM55.951 20.48l456.049 789.893 456.049-789.893h-912.097zM537.006 185.18h-49.93c-4.383 0-7.352-2.949-7.352-7.332v-53.637c0-4.403 2.949-7.332 7.352-7.332h49.93c4.403 0 7.311 2.949 7.311 7.332v53.637c0 4.383-2.867 7.332-7.311 7.332zM481.157 547.553v-296.182c0-4.403 2.929-7.332 7.352-7.332h47.002c4.403 0 7.311 2.949 7.311 7.332v296.182c0 4.403-2.929 7.352-7.311 7.352h-47.002c-4.403 0-7.352-2.949-7.352-7.352z" />
<glyph unicode="&#xe612;" d="M891.74 782.070c-9.523 6.144-22.18 3.4-28.324-6.103l-418.632-649.339-287.683 260.198c-8.417 7.619-21.361 6.922-28.938-1.434-7.598-8.397-6.943-21.34 1.454-28.918l305.582-276.378c3.789-3.441 8.684-5.304 13.742-5.304 0.881 0 1.782 0.061 2.683 0.184 5.96 0.778 11.284 4.157 14.52 9.196l431.718 669.594c6.124 9.523 3.379 22.18-6.124 28.303z" />
<glyph unicode="&#xe613;" d="M534.569 433.91l355.43 355.43c8.008 8.008 8.008 20.951 0 28.959s-20.951 8.008-28.959 0l-355.43-355.43-355.43 355.43c-8.008 8.008-20.951 8.008-28.959 0s-8.008-20.951 0-28.959l355.43-355.43-355.43-355.43c-8.008-8.008-8.008-20.951 0-28.959 3.994-3.994 9.236-6.001 14.479-6.001s10.486 2.007 14.479 6.001l355.43 355.43 355.43-355.43c3.994-3.994 9.236-6.001 14.479-6.001s10.486 2.007 14.479 6.001c8.008 8.008 8.008 20.951 0 28.959l-355.43 355.43z" />
<glyph unicode="&#xe614;" d="M512 680.96l-455.68-455.68 42.721-42.721 412.959 412.959 412.959-412.959 42.721 42.721z" />
<glyph unicode="&#xe615;" d="M307.2 885.76l-42.721-42.721 412.959-412.959-412.959-412.959 42.721-42.721 455.68 455.68z" />
<glyph unicode="&#xe616;" d="M759.521 843.039l-42.721 42.721-455.68-455.68 455.68-455.68 42.721 42.721-412.959 412.959z" />
<glyph unicode="&#xe617;" d="M924.959 677.601l-412.959-412.959-412.959 412.959-42.721-42.721 455.68-455.68 455.68 455.68z" />
<glyph unicode="&#xe618;" d="M942.039 21.709c-7.434 124.211-106.66 163.41-186.409 194.908-47.903 18.924-89.457 35.328-101.97 64.123-1.987 23.245-1.823 41.288-1.638 62.034l0.061 9.789c18.371 18.78 37.294 58.675 44.175 94.249 14.418 7.455 32.338 25.805 37.724 70.738 2.683 22.323-3.83 39.506-12.78 50.79 11.899 40.55 36.454 145.9-5.53 213.463-17.592 28.344-44.257 46.162-79.34 53.105-19.313 24.433-56.381 37.745-106.168 37.745-75.387-1.393-130.56-24.433-163.983-68.465-39.588-52.183-46.94-131.277-21.893-235.192-9.236-11.284-16.036-28.692-13.312-51.466 5.427-45.158 22.979-63.57 37.765-70.963 7.025-35.471 26.378-75.366 45.22-94.147l0.041-9.564c0.184-20.787 0.348-38.83-1.638-62.095-12.534-28.774-54.252-45.199-102.38-64.123-80.036-31.498-179.63-70.676-187.085-194.908l-1.29-21.729h821.74l-1.311 21.709zM166.461 40.96c15.483 81.244 88.125 109.814 158.536 137.523 56.095 22.057 109.076 42.906 126.71 90.296l1.208 5.304c2.417 26.726 2.232 47.309 2.048 69.1l-0.102 18.944 0.369 12.186-10.977 5.755c-8.97 6.083-32.911 47.391-36.864 84.337l-1.782 16.855-16.896 1.393c-2.621 0.225-13.21 7.598-17.060 39.731-1.966 16.527 6.062 22.344 6.103 22.364l13.005 7.905-3.83 14.725c-24.863 95.662-20.746 168.98 11.919 212.009 25.457 33.546 69.898 51.139 131.727 52.265 38.461 0 66.867-9.585 76.001-25.661l4.977-8.786 9.994-1.393c27.382-3.809 46.776-15.462 59.331-35.676 31.457-50.647 13.251-144.179-2.458-191.468l-4.321-15.299 13.107-8.643c0.082-0.041 8.090-5.857 6.103-22.385-3.85-32.133-14.438-39.526-17.060-39.731l-16.876-1.393-1.802-16.835c-3.973-37.151-27.197-78.418-35.41-84.152l-10.977-5.755-0.102-31.375c-0.205-21.77-0.389-42.332 2.048-69.059l1.208-5.284c17.613-47.37 70.41-68.219 126.28-90.276 70.124-27.709 142.459-56.259 157.901-137.544h-732.058z" />
<glyph unicode="&#xe619;" d="M512 942.080c-282.317 0-512-229.683-512-512s229.683-512 512-512 512 229.683 512 512-229.683 512-512 512zM512-40.96c-259.727 0-471.040 211.292-471.040 471.040 0 259.727 211.313 471.040 471.040 471.040 259.748 0 471.040-211.313 471.040-471.040 0-259.748-211.292-471.040-471.040-471.040zM541.471 256.143h-55.849c-4.424 0-7.352-2.929-7.352-7.332v-63.16c0-4.403 2.908-7.311 7.352-7.311h55.849c4.362 0 7.311 2.929 7.311 7.311v63.16c0.020 4.383-2.908 7.332-7.311 7.332zM517.939 685.916c-76.39 0-127.078-46.285-138.117-116.797-0.717-4.424 1.475-7.352 5.898-8.090l46.264-8.090c4.424-0.737 7.352 1.475 8.090 5.878 8.806 44.81 35.246 69.775 76.37 69.775 41.882 0 71.25-26.44 71.25-68.301 0-24.986-8.806-41.882-34.488-77.128l-49.234-67.584c-15.421-21.32-22.016-36.721-22.016-66.13v-30.106c0-4.403 2.929-7.332 7.332-7.25h48.476c4.403 0 7.332 2.929 7.332 7.311v23.491c0 24.965 4.424 35.246 19.108 55.050l49.213 67.584c24.986 34.529 37.417 60.232 37.417 95.498 0 72.745-53.596 124.887-132.895 124.887z" />
<glyph unicode="&#xe61a;" d="M380.457 366.244c-5.714 0-40.1-1.249-66.908-10.363-14.049-5.222-54.723-20.767-54.723-66.785 0-46.039 43.95-79.155 112.087-79.155 61.174 0 93.614 29.962 93.635 70.124 0 33.075-20.951 50.565-69.345 85.565-5.12 0.614-8.294 0.614-14.746 0.614zM512 942.080c-282.788 0-512-229.233-512-512 0-282.747 229.212-512 512-512 282.767 0 512 229.233 512 512 0 282.767-229.233 512-512 512zM479.826 655.872h-39.465c14.623-14.479 45.343-39.404 45.343-88.74 0-47.964-26.829-71.803-53.596-93.102-8.233-8.499-17.92-17.674-17.92-31.887 0-14.234 9.687-22.077 16.671-27.812l22.917-18.227c28.017-23.982 53.412-46.162 53.412-90.808 0-60.969-58.020-122.532-167.588-122.532-92.385 0-136.929 44.708-136.929 92.692 0 23.286 11.469 56.402 49.152 79.135 39.383 24.637 92.918 27.894 121.651 29.942-8.97 11.551-19.149 23.839-19.149 44.052 0 10.875 3.195 17.408 6.451 25.272-7.107-0.614-14.111-1.311-20.46-1.311-67.543 0-105.882 51.343-105.882 101.929 0 29.86 13.455 63.099 40.96 86.917 36.188 30.556 79.626 35.963 113.971 35.963h131.256l-40.796-21.484zM821.33 377.078h-88.33v-88.31h-70.656v88.33h-88.33v70.656h88.33v88.33h70.656v-88.33h88.33v-70.676zM304.579 633.999c-10.813-13.435-14.090-30.986-14.090-47.8 0-43.479 25.047-115.548 79.749-115.548 16.056 0 33.157 7.905 43.418 18.227 14.541 14.971 15.831 35.697 15.831 47.227 0 46.817-27.382 119.439-80.241 119.439-16.568 0-34.386-8.417-44.667-21.545z" />
<glyph unicode="&#xe61b;" d="M512 942.080c-282.788 0-512-229.233-512-512s229.212-512 512-512c282.767 0 512 229.233 512 512s-229.233 512-512 512zM366.633 278.241v-114.688h-129.229v371.507h129.229v-256.819zM302.019 575.447c-38.769 0-64.594 27.464-64.594 61.379s25.825 59.761 64.594 59.761 63.017-25.846 64.614-59.761c0-33.915-24.228-61.379-64.614-61.379zM786.575 163.553h-129.229c0 0 0 195.482 0 210.002s-1.597 64.594-56.525 64.594c-48.456 0-56.525-46.838-56.525-64.594s0-210.002 0-210.002h-129.229v371.507h129.229v-50.074c0 0 25.825 50.074 101.745 50.074 77.517 0 140.513-53.289 140.513-161.505v-210.002z" />
<glyph unicode="&#xe61c;" d="M757.76 798.72h40.96v-106.557l40.96-42.25v189.768h-122.88v-61.768l40.96-42.557zM1016.054 424.94l-489.267 509.747c-3.871 4.035-9.216 6.308-14.787 6.308s-10.916-2.273-14.766-6.308l-489.267-509.706c-7.844-8.151-7.578-21.115 0.594-28.959 8.151-7.803 21.115-7.578 28.959 0.594l64.881 67.604v-546.14h819.2v546.12l64.901-67.625c4.014-4.198 9.4-6.308 14.787-6.308 5.1 0 10.22 1.905 14.172 5.693 8.151 7.864 8.417 20.828 0.594 28.979zM614.4-40.96h-204.8v389.12h204.8v-389.12zM880.64-40.96h-225.28v430.080h-286.72v-430.080h-225.28v547.86l368.64 384.041 368.64-384.061v-547.84z" />
</font>
</defs>
</svg>
